<mxfile host="app.diagrams.net" modified="2021-12-01T21:41:05.709Z" agent="5.0 (Windows NT 10.0; Win64; x64) AppleWebKit/537.36 (KHTML, like Gecko) Chrome/96.0.4664.45 Safari/537.36" etag="jq79D43HEp78IZI4oAR1" version="15.8.8" type="github">
  <diagram id="w47UxYp4E5OJKgiS-P41" name="Page-1">
    <mxGraphModel dx="1652" dy="924" grid="0" gridSize="10" guides="1" tooltips="1" connect="1" arrows="1" fold="1" page="0" pageScale="1" pageWidth="850" pageHeight="1100" math="0" shadow="0">
      <root>
        <mxCell id="0" />
        <mxCell id="1" parent="0" />
        <mxCell id="gvUc9Otj5M6oI9_e2Gob-3" style="edgeStyle=none;curved=1;rounded=0;sketch=1;hachureGap=4;orthogonalLoop=1;jettySize=auto;html=1;exitX=0.5;exitY=1;exitDx=0;exitDy=0;fontFamily=Architects Daughter;fontSource=https%3A%2F%2Ffonts.googleapis.com%2Fcss%3Ffamily%3DArchitects%2BDaughter;fontSize=16;endArrow=open;startSize=14;endSize=14;sourcePerimeterSpacing=8;targetPerimeterSpacing=8;" edge="1" parent="1" source="gvUc9Otj5M6oI9_e2Gob-1" target="gvUc9Otj5M6oI9_e2Gob-2">
          <mxGeometry relative="1" as="geometry" />
        </mxCell>
        <mxCell id="gvUc9Otj5M6oI9_e2Gob-5" style="edgeStyle=none;curved=1;rounded=0;sketch=1;hachureGap=4;orthogonalLoop=1;jettySize=auto;html=1;exitX=0.5;exitY=1;exitDx=0;exitDy=0;fontFamily=Architects Daughter;fontSource=https%3A%2F%2Ffonts.googleapis.com%2Fcss%3Ffamily%3DArchitects%2BDaughter;fontSize=16;endArrow=open;startSize=14;endSize=14;sourcePerimeterSpacing=8;targetPerimeterSpacing=8;" edge="1" parent="1" source="gvUc9Otj5M6oI9_e2Gob-1" target="gvUc9Otj5M6oI9_e2Gob-4">
          <mxGeometry relative="1" as="geometry" />
        </mxCell>
        <mxCell id="gvUc9Otj5M6oI9_e2Gob-1" value="50" style="rounded=0;whiteSpace=wrap;html=1;sketch=1;hachureGap=4;fontFamily=Architects Daughter;fontSource=https%3A%2F%2Ffonts.googleapis.com%2Fcss%3Ffamily%3DArchitects%2BDaughter;fontSize=20;fillColor=#cce5ff;strokeColor=#36393d;" vertex="1" parent="1">
          <mxGeometry x="202" y="-18" width="120" height="60" as="geometry" />
        </mxCell>
        <mxCell id="gvUc9Otj5M6oI9_e2Gob-11" style="edgeStyle=none;curved=1;rounded=0;sketch=1;hachureGap=4;orthogonalLoop=1;jettySize=auto;html=1;exitX=0.5;exitY=1;exitDx=0;exitDy=0;fontFamily=Architects Daughter;fontSource=https%3A%2F%2Ffonts.googleapis.com%2Fcss%3Ffamily%3DArchitects%2BDaughter;fontSize=16;endArrow=open;startSize=14;endSize=14;sourcePerimeterSpacing=8;targetPerimeterSpacing=8;" edge="1" parent="1" source="gvUc9Otj5M6oI9_e2Gob-2" target="gvUc9Otj5M6oI9_e2Gob-10">
          <mxGeometry relative="1" as="geometry" />
        </mxCell>
        <mxCell id="gvUc9Otj5M6oI9_e2Gob-13" style="edgeStyle=none;curved=1;rounded=0;sketch=1;hachureGap=4;orthogonalLoop=1;jettySize=auto;html=1;exitX=0.5;exitY=1;exitDx=0;exitDy=0;fontFamily=Architects Daughter;fontSource=https%3A%2F%2Ffonts.googleapis.com%2Fcss%3Ffamily%3DArchitects%2BDaughter;fontSize=16;endArrow=open;startSize=14;endSize=14;sourcePerimeterSpacing=8;targetPerimeterSpacing=8;" edge="1" parent="1" source="gvUc9Otj5M6oI9_e2Gob-2" target="gvUc9Otj5M6oI9_e2Gob-12">
          <mxGeometry relative="1" as="geometry" />
        </mxCell>
        <mxCell id="gvUc9Otj5M6oI9_e2Gob-2" value="29" style="rounded=0;whiteSpace=wrap;html=1;sketch=1;hachureGap=4;fontFamily=Architects Daughter;fontSource=https%3A%2F%2Ffonts.googleapis.com%2Fcss%3Ffamily%3DArchitects%2BDaughter;fontSize=20;fillColor=#cce5ff;strokeColor=#36393d;" vertex="1" parent="1">
          <mxGeometry x="-39" y="67" width="120" height="60" as="geometry" />
        </mxCell>
        <mxCell id="gvUc9Otj5M6oI9_e2Gob-7" style="edgeStyle=none;curved=1;rounded=0;sketch=1;hachureGap=4;orthogonalLoop=1;jettySize=auto;html=1;exitX=0.5;exitY=1;exitDx=0;exitDy=0;fontFamily=Architects Daughter;fontSource=https%3A%2F%2Ffonts.googleapis.com%2Fcss%3Ffamily%3DArchitects%2BDaughter;fontSize=16;endArrow=open;startSize=14;endSize=14;sourcePerimeterSpacing=8;targetPerimeterSpacing=8;" edge="1" parent="1" source="gvUc9Otj5M6oI9_e2Gob-4" target="gvUc9Otj5M6oI9_e2Gob-6">
          <mxGeometry relative="1" as="geometry" />
        </mxCell>
        <mxCell id="gvUc9Otj5M6oI9_e2Gob-9" style="edgeStyle=none;curved=1;rounded=0;sketch=1;hachureGap=4;orthogonalLoop=1;jettySize=auto;html=1;exitX=0.5;exitY=1;exitDx=0;exitDy=0;fontFamily=Architects Daughter;fontSource=https%3A%2F%2Ffonts.googleapis.com%2Fcss%3Ffamily%3DArchitects%2BDaughter;fontSize=16;endArrow=open;startSize=14;endSize=14;sourcePerimeterSpacing=8;targetPerimeterSpacing=8;" edge="1" parent="1" source="gvUc9Otj5M6oI9_e2Gob-4" target="gvUc9Otj5M6oI9_e2Gob-8">
          <mxGeometry relative="1" as="geometry" />
        </mxCell>
        <mxCell id="gvUc9Otj5M6oI9_e2Gob-4" value="45" style="rounded=0;whiteSpace=wrap;html=1;sketch=1;hachureGap=4;fontFamily=Architects Daughter;fontSource=https%3A%2F%2Ffonts.googleapis.com%2Fcss%3Ffamily%3DArchitects%2BDaughter;fontSize=20;fillColor=#cce5ff;strokeColor=#36393d;" vertex="1" parent="1">
          <mxGeometry x="382" y="65" width="120" height="60" as="geometry" />
        </mxCell>
        <mxCell id="gvUc9Otj5M6oI9_e2Gob-6" value="30" style="rounded=0;whiteSpace=wrap;html=1;sketch=1;hachureGap=4;fontFamily=Architects Daughter;fontSource=https%3A%2F%2Ffonts.googleapis.com%2Fcss%3Ffamily%3DArchitects%2BDaughter;fontSize=20;fillColor=#cce5ff;strokeColor=#36393d;" vertex="1" parent="1">
          <mxGeometry x="486" y="162" width="120" height="60" as="geometry" />
        </mxCell>
        <mxCell id="gvUc9Otj5M6oI9_e2Gob-8" value="40" style="rounded=0;whiteSpace=wrap;html=1;sketch=1;hachureGap=4;fontFamily=Architects Daughter;fontSource=https%3A%2F%2Ffonts.googleapis.com%2Fcss%3Ffamily%3DArchitects%2BDaughter;fontSize=20;fillColor=#cce5ff;strokeColor=#36393d;" vertex="1" parent="1">
          <mxGeometry x="281" y="162" width="120" height="60" as="geometry" />
        </mxCell>
        <mxCell id="gvUc9Otj5M6oI9_e2Gob-19" style="edgeStyle=none;curved=1;rounded=0;sketch=1;hachureGap=4;orthogonalLoop=1;jettySize=auto;html=1;exitX=0.5;exitY=1;exitDx=0;exitDy=0;fontFamily=Architects Daughter;fontSource=https%3A%2F%2Ffonts.googleapis.com%2Fcss%3Ffamily%3DArchitects%2BDaughter;fontSize=16;endArrow=open;startSize=14;endSize=14;sourcePerimeterSpacing=8;targetPerimeterSpacing=8;" edge="1" parent="1" source="gvUc9Otj5M6oI9_e2Gob-10" target="gvUc9Otj5M6oI9_e2Gob-18">
          <mxGeometry relative="1" as="geometry" />
        </mxCell>
        <mxCell id="gvUc9Otj5M6oI9_e2Gob-10" value="25" style="rounded=0;whiteSpace=wrap;html=1;sketch=1;hachureGap=4;fontFamily=Architects Daughter;fontSource=https%3A%2F%2Ffonts.googleapis.com%2Fcss%3Ffamily%3DArchitects%2BDaughter;fontSize=20;fillColor=#cce5ff;strokeColor=#36393d;" vertex="1" parent="1">
          <mxGeometry x="113" y="162" width="120" height="60" as="geometry" />
        </mxCell>
        <mxCell id="gvUc9Otj5M6oI9_e2Gob-15" style="edgeStyle=none;curved=1;rounded=0;sketch=1;hachureGap=4;orthogonalLoop=1;jettySize=auto;html=1;exitX=0.5;exitY=1;exitDx=0;exitDy=0;fontFamily=Architects Daughter;fontSource=https%3A%2F%2Ffonts.googleapis.com%2Fcss%3Ffamily%3DArchitects%2BDaughter;fontSize=16;endArrow=open;startSize=14;endSize=14;sourcePerimeterSpacing=8;targetPerimeterSpacing=8;" edge="1" parent="1" source="gvUc9Otj5M6oI9_e2Gob-12" target="gvUc9Otj5M6oI9_e2Gob-14">
          <mxGeometry relative="1" as="geometry" />
        </mxCell>
        <mxCell id="gvUc9Otj5M6oI9_e2Gob-17" style="edgeStyle=none;curved=1;rounded=0;sketch=1;hachureGap=4;orthogonalLoop=1;jettySize=auto;html=1;exitX=0.5;exitY=1;exitDx=0;exitDy=0;fontFamily=Architects Daughter;fontSource=https%3A%2F%2Ffonts.googleapis.com%2Fcss%3Ffamily%3DArchitects%2BDaughter;fontSize=16;endArrow=open;startSize=14;endSize=14;sourcePerimeterSpacing=8;targetPerimeterSpacing=8;" edge="1" parent="1" source="gvUc9Otj5M6oI9_e2Gob-12" target="gvUc9Otj5M6oI9_e2Gob-16">
          <mxGeometry relative="1" as="geometry" />
        </mxCell>
        <mxCell id="gvUc9Otj5M6oI9_e2Gob-12" value="20" style="rounded=0;whiteSpace=wrap;html=1;sketch=1;hachureGap=4;fontFamily=Architects Daughter;fontSource=https%3A%2F%2Ffonts.googleapis.com%2Fcss%3Ffamily%3DArchitects%2BDaughter;fontSize=20;fillColor=#cce5ff;strokeColor=#36393d;" vertex="1" parent="1">
          <mxGeometry x="-197" y="161" width="120" height="60" as="geometry" />
        </mxCell>
        <mxCell id="gvUc9Otj5M6oI9_e2Gob-14" value="5" style="rounded=0;whiteSpace=wrap;html=1;sketch=1;hachureGap=4;fontFamily=Architects Daughter;fontSource=https%3A%2F%2Ffonts.googleapis.com%2Fcss%3Ffamily%3DArchitects%2BDaughter;fontSize=20;fillColor=#cce5ff;strokeColor=#36393d;" vertex="1" parent="1">
          <mxGeometry x="-289" y="260" width="120" height="60" as="geometry" />
        </mxCell>
        <mxCell id="gvUc9Otj5M6oI9_e2Gob-16" value="15" style="rounded=0;whiteSpace=wrap;html=1;sketch=1;hachureGap=4;fontFamily=Architects Daughter;fontSource=https%3A%2F%2Ffonts.googleapis.com%2Fcss%3Ffamily%3DArchitects%2BDaughter;fontSize=20;fillColor=#cce5ff;strokeColor=#36393d;" vertex="1" parent="1">
          <mxGeometry x="-118" y="261" width="120" height="60" as="geometry" />
        </mxCell>
        <mxCell id="gvUc9Otj5M6oI9_e2Gob-18" value="21" style="rounded=0;whiteSpace=wrap;html=1;sketch=1;hachureGap=4;fontFamily=Architects Daughter;fontSource=https%3A%2F%2Ffonts.googleapis.com%2Fcss%3Ffamily%3DArchitects%2BDaughter;fontSize=20;fillColor=#cce5ff;strokeColor=#36393d;" vertex="1" parent="1">
          <mxGeometry x="32" y="261" width="120" height="60" as="geometry" />
        </mxCell>
      </root>
    </mxGraphModel>
  </diagram>
</mxfile>
